#!OML:ASF E:\VariousWalksJay\Project 1\Capture day 1\Session 1\Actor2.ASF
:FULLY-SPECIFIED
:DEGREES
876
root -13.8003 17.0011 43.3144 26.531 -45.5907 -10.1835
lowerback 18.0647 -2.27524 4.30814
upperback 12.2217 -2.81301 -1.71583
thorax 2.78836 -1.27257 -3.82472
lowerneck 3.36858 1.93177 3.24406
upperneck -12.4801 3.1236 2.70269
head -4.74326 1.20844 0.185908
rclavicle 2.70347e-014 -5.00937e-014
rhumerus -43.2187 13.6632 -89.194
rradius 57.411
rwrist 16.7564
rhand -43.4559 10.3466
rfingers 7.12502
rthumb -16.2974 -18.9886
lclavicle 2.70347e-014 -5.00937e-014
lhumerus 4.26255 -56.6046 76.5913
lradius 82.9055
lwrist 29.6031
lhand -33.1271 0.344148
lfingers 7.12502
lthumb -6.33691 30.2294
rfemur -33.7479 4.00236 18.0999
rtibia 68.5714
rfoot 3.56165 -24.5684
rtoes 10.2488
lfemur -41.7052 13.1911 -23.9773
ltibia 27.4422
lfoot -4.19949 -4.00649
ltoes -28.6965
877
root -13.8196 16.9998 43.358 26.4662 -45.7445 -10.1717
lowerback 18.0314 -2.25398 4.15785
upperback 12.2005 -2.80677 -1.77063
thorax 2.78377 -1.27651 -3.79963
lowerneck 3.40935 1.85946 3.15166
upperneck -12.5985 3.04692 2.91374
head -4.80178 1.15892 0.277512
rclavicle -6.04305e-014 4.45278e-014
rhumerus -43.0675 13.7618 -89.241
rradius 57.6937
rwrist 16.6711
rhand -43.4655 10.2852
rfingers 7.12502
rthumb -16.3066 -19.0491
lclavicle -6.04305e-014 4.45278e-014
lhumerus 4.75628 -56.3711 76.1434
lradius 82.9083
lwrist 29.8827
lhand -33.1559 0.393128
lfingers 7.12502
lthumb -6.3647 30.2775
rfemur -34.3499 3.94442 18.2174
rtibia 68.7396
rfoot 1.44402 -24.5396
rtoes 8.80968
lfemur -41.6021 13.3816 -24.1048
ltibia 27.6798
lfoot -4.45047 -4.08793
ltoes -28.8498
878
root -13.8391 16.9984 43.4004 26.3456 -45.8694 -10.1329
lowerback 18.0244 -2.25002 4.01659
upperback 12.1723 -2.81997 -1.82978
thorax 2.75588 -1.28994 -3.77997
lowerneck 3.43753 1.78651 3.05757
upperneck -12.711 2.96976 3.13568
head -4.85578 1.10878 0.373759
rclavicle 6.83819e-014 -2.94201e-014
rhumerus -42.9307 13.854 -89.2956
rradius 57.9942
rwrist 16.5931
rhand -43.4539 10.1917
rfingers 7.12502
rthumb -16.2954 -19.1436
lclavicle 6.83819e-014 -2.94201e-014
lhumerus 5.24835 -56.1382 75.6815
lradius 82.891
lwrist 30.204
lhand -33.1883 0.423104
lfingers 7.12502
lthumb -6.39596 30.3065
rfemur -34.8745 3.88627 18.3409
rtibia 68.7705
rfoot -0.66853 -24.418
rtoes 7.3183
lfemur -41.4487 13.5355 -24.2213
ltibia 27.8997
lfoot -4.69335 -4.15912
ltoes -28.8676
879
root -13.8593 16.9973 43.4421 26.2143 -45.9877 -10.0863
lowerback 17.9969 -2.25178 3.8783
upperback 12.1343 -2.84007 -1.89032
thorax 2.72687 -1.30642 -3.7627
lowerneck 3.44097 1.71323 2.95827
upperneck -12.8069 2.89147 3.37059
head -4.8988 1.05819 0.476074
rclavicle 4.77083e-014 -7.95139e-016
rhumerus -42.7988 13.9385 -89.3484
rradius 58.3061
rwrist 16.5222
rhand -43.4162 10.1283
rfingers 7.12502
rthumb -16.2592 -19.21
lclavicle 4.77083e-014 -7.95139e-016
lhumerus 5.69888 -55.8706 75.2667
lradius 82.857
lwrist 30.5123
lhand -33.2016 0.456804
lfingers 7.12502
lthumb -6.40883 30.3398
rfemur -35.3596 3.82742 18.4769
rtibia 68.6562
rfoot -2.65095 -24.1833
rtoes 5.56732
lfemur -41.2794 13.6846 -24.3332
ltibia 28.1019
lfoot -4.92672 -4.2285
ltoes -28.8817
880
root -13.8802 16.9964 43.4832 26.0708 -46.0874 -10.0364
lowerback 17.9509 -2.26279 3.75726
upperback 12.0895 -2.86971 -1.95171
thorax 2.69857 -1.3264 -3.75494
lowerneck 3.4244 1.64003 2.85154
upperneck -12.8942 2.81378 3.625
head -4.93499 1.00748 0.586904
rclavicle 5.56597e-014 1.18476e-013
rhumerus -42.6654 14.006 -89.3995
rradius 58.6158
rwrist 16.4635
rhand -43.3582 10.0905
rfingers 7.12502
rthumb -16.2032 -19.2523
lclavicle 5.56597e-014 1.18476e-013
lhumerus 6.11954 -55.5785 74.8876
lradius 82.8021
lwrist 30.7996
lhand -33.191 0.512685
lfingers 7.12502
lthumb -6.39856 30.396
rfemur -35.7935 3.76686 18.6335
rtibia 68.3924
rfoot -4.51276 -23.8599
rtoes 3.63525
lfemur -41.0907 13.82 -24.4311
ltibia 28.2935
lfoot -5.15561 -4.29495
ltoes -28.8795
